
        <svg xmlns="http://www.w3.org/2000/svg" xmlns:xlink="http://www.w3.org/1999/xlink" version="1.1" width="2190.115720971779" 
        height="3239.258926382161" viewBox="0 0 2190.115720971779 3239.258926382161">
			
			<g transform="scale(11.962946319108047) translate(10, 10)">
				<defs id="SvgjsDefs1001"></defs><g id="SvgjsG1007" featureKey="monogramFeature-0" transform="matrix(4.853421211242676,0,0,4.853421211242676,-21.84039520507601,-87.36158082030404)" fill="#f76b8a"><path d="M4.5 43.32 l0 -25.32 l6.42 0 l0 24.84 c0 7.32 4.38 11.22 10.38 11.22 s10.38 -3.9 10.38 -11.22 l0 -24.84 l6.42 0 l0 25.32 c0 10.92 -6.42 17.28 -16.8 17.28 s-16.8 -6.36 -16.8 -17.28 z"></path></g><g id="SvgjsG1008" featureKey="nameFeature-0" transform="matrix(0.8308746218681335,0,0,0.8308746218681335,-2.548292819096907,217.214790690788)" fill="#fcfefe"><path d="M14.102 40.39063 c-6.1914 0 -11.035 -3.1641 -11.035 -10.273 l0 -18.34 l5.8594 0 l0 17.539 c0 4.2969 2.2852 5.8984 5.1758 5.8984 c2.9102 0 5.2148 -1.6211 5.2148 -5.8984 l0 -17.539 l5.8594 0 l0 18.34 c0 7.1094 -4.8633 10.273 -11.074 10.273 z M37.7538875 34.8242 l8.8477 0 l0 5.1758 l-14.707 0 l0 -28.223 l5.8594 0 l0 23.047 z M67.441875 11.777000000000001 l0 5.1563 l-6.6992 0 l0 23.066 l-5.8008 0 l0 -23.066 l-6.7383 0 l0 -5.1563 l19.238 0 z M86.77765625 40 l-7.3438 -12.422 l-1.6992 0 l0 12.422 l-5.8594 0 l0 -28.223 l10.234 0 c6.3867 0 9.082 3.7695 9.082 8.4375 c0 3.7891 -2.1484 6.25 -5.9766 7.0703 l8.4961 12.715 l-6.9336 0 z M77.73435625 16.641 l0 6.7383 l3.457 0 c3.125 0 4.3945 -1.3281 4.3945 -3.3594 c0 -2.0117 -1.2695 -3.3789 -4.3945 -3.3789 l-3.457 0 z M116.89446875 40 l-2.0508 -5.8203 l-11.855 0 l-2.0508 5.8203 l-5.9961 0 l10.391 -28.223 l7.168 0 l10.391 28.223 l-5.9961 0 z M104.70746875 29.277 l8.418 0 l-4.1992 -11.973 z M142.0315625 40 l-7.3438 -12.422 l-1.6992 0 l0 12.422 l-5.8594 0 l0 -28.223 l10.234 0 c6.3867 0 9.082 3.7695 9.082 8.4375 c0 3.7891 -2.1484 6.25 -5.9766 7.0703 l8.4961 12.715 l-6.9336 0 z M132.9882625 16.641 l0 6.7383 l3.457 0 c3.125 0 4.3945 -1.3281 4.3945 -3.3594 c0 -2.0117 -1.2695 -3.3789 -4.3945 -3.3789 l-3.457 0 z M169.629375 16.934 l-10.469 0 l0 6.4063 l9.2773 0 l0 5.0977 l-9.2773 0 l0 6.3867 l10.469 0 l0 5.1758 l-16.367 0 l0 -28.223 l16.367 0 l0 5.1563 z M175.66401875 40 l0 -28.223 l10.215 0 c9.0039 0 13.457 5.6641 13.457 14.102 c0 8.457 -4.4531 14.121 -13.457 14.121 l-10.215 0 z M181.52341875 34.8242 l4.0625 0 c5.1953 0 7.5781 -3.2422 7.5781 -8.9453 s-2.3828 -8.9453 -7.5781 -8.9453 l-4.0625 0 l0 17.891 z"></path></g>
			</g>
		</svg>
	